<?xml version="1.0" encoding="utf-8"?>
<!-- Generator: Adobe Illustrator 27.5.0, SVG Export Plug-In . SVG Version: 6.00 Build 0)  -->
<svg version="1.1" id="Layer_1" xmlns="http://www.w3.org/2000/svg" xmlns:xlink="http://www.w3.org/1999/xlink" x="0px" y="0px"
	 viewBox="0 0 2361.6 2042.4" style="enable-background:new 0 0 2361.6 2042.4;" xml:space="preserve">
<style type="text/css">
	.st0{fill:#3b82f6;}
	.st1{fill:#172554;}
	.st2{fill:#FFFFFF;stroke:#FFFFFF;stroke-miterlimit:10;}
</style>
<path class="st0" d="M2361.6,531.1L816.2,1777.9l-517.9-701.7l291.5-154.4l312.3,423.3L2283.2,215.2l-426.8,219.5
	C1671.6,172.1,1366.7,0,1021.2,0C457.2,0,0,457.2,0,1021.2s457.2,1021.2,1021.2,1021.2s1021.2-457.2,1021.2-1021.2
	c0-34.5-1.8-68.6-5.2-102.2L2361.6,531.1L2361.6,531.1L2361.6,531.1z"/>
<path class="st1" d="M387.8,1028.8l202-107l312.3,423.3L2283.2,215.2l-426.8,219.5C1671.6,172.1,1366.7,0,1021.2,0
	C457.2,0,0,457.2,0,1021.2c0,69.2,7.1,136.6,20.2,202L387.8,1028.8L387.8,1028.8z"/>
<polygon class="st2" points="2283.2,215.2 2361.6,531.1 816.2,1777.9 298.3,1076.2 589.8,921.8 902.1,1345.1 "/>
</svg>
